# xmcd
#
# Track frame offsets: 
#        150
#        20270
#        39950
#        60717
#        81490
#        97350
#        118522
#        142607
#        164022
#        187877
#        210390
#
# Disc length: 3133 seconds
#
# Revision: 9
# Processed by: cddbd v1.5.2PL0 Copyright (c) Steve Scherf et al.
# Submitted via: ExactAudioCopy v1.0b4
#
DISCID=8e0c3b0b
DTITLE=周蕙 - 情歌经典1
DYEAR=1999
DGENRE=Pop
TTITLE0=不想讓你知道
TTITLE1=約定
TTITLE2=風鈴
TTITLE3=我喜歡
TTITLE4=空白
TTITLE5=FOREVER
TTITLE6=預言
TTITLE7=討厭自己
TTITLE8=思念的翅膀
TTITLE9=我看
TTITLE10=了了
EXTD=YEAR: 1999
EXTT0=
EXTT1=
EXTT2=
EXTT3=
EXTT4=
EXTT5=
EXTT6=
EXTT7=
EXTT8=
EXTT9=
EXTT10=
PLAYORDER=
